<svg xmlns="http://www.w3.org/2000/svg" width="512" height="512" viewBox="0 0 512 512" version="1.1">
	<path d="M 232.352 37.952 C 204.171 41.206, 165.850 54.804, 140.009 70.718 C 118.875 83.733, 95.525 104.068, 81.043 122.069 C 57.881 150.860, 41.825 188.716, 35.461 229.542 C 33.262 243.652, 32.486 272.007, 33.903 286.500 C 39.200 340.686, 65.733 395.692, 102.572 428.860 C 118.399 443.110, 145.919 461.480, 163.647 469.630 C 193.412 483.312, 220.092 489, 254.512 489 C 278.250 489, 290.017 487.691, 308.573 482.988 C 339.706 475.096, 368.450 461.195, 391 443.123 C 399.611 436.223, 416.608 419.386, 424.625 409.816 C 445.006 385.488, 463.527 348.344, 471.934 314.942 C 484.632 264.487, 477.626 210.360, 451.854 159.797 C 440.870 138.247, 427.954 120.749, 409.762 102.772 C 376.030 69.439, 332.606 47.054, 287 39.489 C 276.019 37.667, 242.886 36.736, 232.352 37.952 M 240.746 65.536 C 205.778 70.302, 169.107 85.812, 138.388 108.827 C 104.202 134.438, 81.056 170.412, 69.546 215.819 C 56.051 269.056, 64.459 320.042, 94.674 368.190 C 100.750 377.874, 111.041 391, 112.556 391 C 113.364 391, 113.918 384.604, 114.420 369.478 C 115.114 348.609, 115.071 347.850, 113.002 344.504 C 111.663 342.337, 110.987 339.834, 111.185 337.776 L 111.500 334.500 118.500 334 L 125.500 333.500 125.781 321.820 L 126.062 310.140 123.031 306.688 C 119.094 302.204, 118.965 297.689, 122.665 293.828 C 125.276 291.102, 125.304 290.936, 124.034 285.641 C 122.477 279.151, 123.190 273.341, 126.393 266.428 C 129.728 259.229, 134.328 254.402, 143.500 248.478 C 147.900 245.635, 152.074 242.617, 152.776 241.771 C 153.477 240.925, 154.260 237.084, 154.514 233.234 C 154.769 229.385, 155.404 225.170, 155.925 223.868 L 156.873 221.500 157.036 224 C 157.125 225.375, 157.363 229.593, 157.565 233.373 C 158.008 241.685, 159.228 243.723, 166.729 248.677 C 182.376 259.014, 190.375 274.987, 185.612 286.386 C 184.733 288.490, 184.302 290.727, 184.655 291.356 C 185.789 293.376, 189.322 297, 190.157 297 C 190.602 297, 192.149 294.637, 193.595 291.750 C 195.041 288.863, 197.411 284.925, 198.862 283 C 201.455 279.560, 201.500 279.228, 201.500 263.637 L 201.500 247.774 197.657 244.450 C 194.225 241.483, 193.883 240.772, 194.460 237.813 C 194.816 235.991, 195.727 232.925, 196.485 231 C 197.243 229.075, 198.831 224.350, 200.014 220.500 C 204.328 206.464, 211.371 197.336, 227.041 185.469 C 233.592 180.508, 237.892 176.362, 240.387 172.604 C 247.526 161.849, 248.608 154.693, 244.500 145.404 C 241.480 138.576, 241.442 137.815, 244.004 135.496 C 247.394 132.429, 248.440 126.440, 246.482 121.314 C 244.911 117.199, 244.913 116.704, 246.514 113.330 C 248.555 109.028, 255 83.900, 255 80.242 C 255 78.826, 255.301 77.967, 255.668 78.335 C 256.035 78.702, 256.664 85.513, 257.064 93.471 C 257.666 105.423, 258.181 108.743, 260.028 112.557 C 262.036 116.706, 262.134 117.564, 260.993 121.021 C 259.431 125.754, 260.182 129.903, 263.480 134.755 C 266.612 139.365, 266.607 139.869, 263.364 146.269 C 259.776 153.350, 259.976 157.544, 264.325 166.342 C 268.229 174.243, 273.742 180.039, 287.227 190.422 C 294.743 196.209, 301.435 203.976, 304.955 211 C 305.920 212.925, 308.645 220.217, 311.012 227.205 L 315.315 239.909 311.657 243.958 L 308 248.006 308 263.627 L 308 279.248 312.015 285.261 C 314.224 288.568, 316.297 292.337, 316.624 293.637 C 317.410 296.771, 318.425 296.617, 321.024 292.967 C 323.007 290.182, 323.085 289.524, 321.984 284.931 C 318.847 271.856, 326.636 257.392, 342.203 247.383 C 350.574 242.001, 352.057 239.761, 352.505 231.812 C 352.701 228.340, 353.314 224.375, 353.868 223 L 354.873 220.500 355.038 223 C 355.129 224.375, 355.351 228.309, 355.532 231.742 C 355.712 235.175, 356.145 238.883, 356.494 239.981 C 356.842 241.079, 361.196 244.764, 366.168 248.169 C 379.639 257.396, 386.934 268.133, 386.978 278.800 C 386.990 281.723, 386.289 285.473, 385.415 287.164 C 383.869 290.154, 383.904 290.307, 386.846 293.365 C 391.389 298.088, 391.646 300.744, 388.070 306.023 C 385.141 310.346, 385.036 310.887, 385.018 321.750 L 385 333 389.750 333.014 C 392.363 333.021, 395.468 333.287, 396.651 333.604 C 399.399 334.342, 400.241 338.488, 398.492 342.674 C 396.957 346.347, 395.947 387.295, 397.357 388.669 C 399.675 390.928, 414.653 368.898, 426.070 346.438 C 449.102 301.125, 453.237 248.498, 437.480 201.209 C 427.737 171.967, 411.072 144.630, 391.123 125.163 C 360.518 95.297, 317.007 73.575, 272.651 66.019 C 259.208 63.729, 254.523 63.658, 240.746 65.536 M 284 87.651 C 277.100 88.303, 260 91.449, 260 92.066 C 260 93.527, 268.349 96.166, 280.500 98.548 C 311.552 104.634, 336.810 117.007, 361.531 138.243 C 378.710 153.002, 389.795 167.347, 399.590 187.500 C 413.878 216.896, 420.380 250.909, 417.932 283.446 C 416.902 297.127, 415.872 303.977, 410.580 332.317 C 409.161 339.916, 408.018 347.791, 408.041 349.817 L 408.081 353.500 411.118 350 C 415.226 345.266, 425.279 324.578, 428.886 313.435 C 434.838 295.049, 436.483 284.326, 436.474 264 C 436.464 244.827, 435.648 237.842, 431.436 220.922 C 419.348 172.354, 394.081 135.525, 354.694 109.066 C 344.096 101.946, 326.214 93.553, 316.336 91.061 C 309.211 89.264, 291.347 86.771, 288.500 87.177 C 287.950 87.256, 285.925 87.469, 284 87.651 M 206.500 89.041 C 182.701 92.737, 153.942 107.133, 132.214 126.225 C 104.562 150.523, 84.818 188.316, 76.314 233.223 C 74.967 240.337, 74.563 247.630, 74.580 264.500 C 74.604 288.832, 75.907 297.733, 82.264 317 C 86.261 329.115, 96.733 349.813, 99.915 351.888 L 102.330 353.463 101.636 347.481 C 101.254 344.192, 99.406 332.050, 97.529 320.500 C 95.652 308.950, 93.640 294.840, 93.058 289.144 C 87.004 229.899, 107.395 173.019, 147.128 138.318 C 162.670 124.744, 186.402 110.901, 204.038 105.121 C 207.634 103.942, 218.581 100.984, 228.365 98.547 C 238.149 96.111, 246.854 93.536, 247.710 92.826 C 249.038 91.724, 248.404 91.346, 243.383 90.247 C 235.692 88.562, 214.123 87.858, 206.500 89.041 M 236.096 230.241 C 232.086 232.342, 229.954 236.260, 228.945 243.385 C 228.053 249.687, 228.144 250.367, 230.242 253.027 C 231.484 254.601, 232.798 255.914, 233.162 255.945 C 233.526 255.975, 237.126 254.123, 241.162 251.828 C 245.198 249.534, 248.582 247.614, 248.682 247.563 C 248.782 247.511, 248.480 244.374, 248.011 240.592 C 247.100 233.240, 245.398 230.561, 241 229.554 C 239.625 229.239, 237.418 229.548, 236.096 230.241 M 268.044 231.802 C 266.021 233.825, 265.043 236.048, 264.527 239.801 C 264.134 242.659, 263.383 245.263, 262.858 245.588 C 261.315 246.541, 263.677 248.647, 270.679 252.563 L 277.167 256.191 279.695 253.846 C 282.076 251.636, 282.193 251.061, 281.716 243.904 C 281.438 239.726, 280.505 234.943, 279.642 233.275 C 276.982 228.130, 272.310 227.537, 268.044 231.802 M 211.514 251.250 C 211.621 260.738, 211.773 268.859, 211.854 269.298 C 211.934 269.737, 214.025 268.703, 216.500 267 L 221 263.904 221 251.587 C 221 240.640, 220.769 238.977, 218.927 236.635 C 217.580 234.923, 215.886 234, 214.088 234 L 211.321 234 211.514 251.250 M 291.073 236.635 C 289.382 238.784, 289 240.694, 289 246.995 C 289 251.244, 288.722 256.750, 288.382 259.231 C 287.770 263.695, 287.810 263.773, 292.312 266.871 C 294.814 268.592, 297.117 270, 297.430 270 C 297.744 270, 298 261.900, 298 252 L 298 234 295.573 234 C 294.141 234, 292.295 235.081, 291.073 236.635 M 245.998 280.855 C 233.007 288.050, 226.064 292.939, 219.756 299.337 C 209.706 309.529, 204 322.563, 204 335.328 C 204 340.466, 204.391 341.681, 207 344.653 C 210.904 349.100, 210.993 353.242, 207.253 356.459 L 204.506 358.822 204.145 377.911 L 203.784 397 209.816 397 L 215.848 397 216.183 371.750 C 216.516 346.576, 216.526 346.479, 219.393 339.500 C 224.768 326.419, 231.979 318.091, 245.305 309.577 C 251.579 305.568, 254.990 301.074, 254.996 296.809 C 254.998 295.329, 255.403 293.869, 255.895 293.565 C 257.030 292.864, 258 295.344, 258 298.945 C 258 301.877, 263.224 307.318, 271.975 313.500 C 281.611 320.308, 289.242 331.508, 292.348 343.401 C 293.578 348.112, 293.748 353.581, 293.272 373.088 L 292.689 397 299.345 397 L 306 397 306 378.535 L 306 360.070 302.856 356.488 C 299.860 353.077, 299.767 352.720, 300.891 348.970 C 301.540 346.804, 302.955 344.559, 304.035 343.981 C 305.711 343.084, 306 341.863, 306 335.675 C 306 319.112, 298.752 304.578, 284.788 293.143 C 278.163 287.717, 258.308 275.957, 255.969 276.073 C 255.161 276.114, 250.674 278.265, 245.998 280.855 M 334.234 299.549 C 333.092 300.348, 331.856 302.381, 331.486 304.065 C 331.070 305.956, 329.863 307.561, 328.331 308.259 C 325.972 309.334, 325.880 309.690, 326.477 315.445 C 327.696 327.192, 327.507 326.863, 333.216 327.200 C 338.577 327.517, 339.394 328.217, 340.509 333.448 C 341.854 339.758, 342.970 333.235, 342.985 318.973 C 342.997 307.446, 342.680 303.988, 341.449 302.230 C 339.012 298.752, 336.634 297.868, 334.234 299.549 M 135.755 300.750 C 132.198 304.752, 131 310.026, 131 321.686 L 131 333.128 133.750 332.913 C 138.898 332.511, 139.863 332.980, 141.136 336.500 C 143.960 344.308, 144.969 339.845, 144.986 319.473 C 144.997 306.569, 144.697 303.012, 143.443 301.223 C 141.578 298.559, 137.902 298.333, 135.755 300.750 M 168.089 300.911 C 165.698 303.302, 164.761 311.539, 165.187 326.419 C 165.402 333.915, 165.884 337.465, 166.726 337.744 C 167.501 338.001, 168.196 336.628, 168.615 334.008 C 169.476 328.620, 171.038 327.196, 176.947 326.413 L 181.808 325.768 182.431 321.134 C 182.773 318.585, 183.307 314.809, 183.616 312.743 C 184.148 309.186, 184.015 308.953, 181.119 308.374 C 179.430 308.036, 177.803 306.956, 177.488 305.963 C 176.588 303.127, 172.996 299, 171.427 299 C 170.642 299, 169.140 299.860, 168.089 300.911 M 368.315 300.011 C 367.114 300.493, 365.688 301.715, 365.147 302.726 C 363.651 305.521, 362.464 339.551, 363.833 340.397 C 364.492 340.804, 365.523 339.683, 366.385 337.621 C 368.193 333.294, 370.695 331.914, 375.359 332.671 L 379 333.262 379 321.369 C 379 309.629, 378.959 309.414, 375.750 304.556 C 372.167 299.132, 371.508 298.729, 368.315 300.011 M 248.145 322.564 C 238.992 327.143, 231.168 334.331, 227.167 341.837 C 222.598 350.411, 222.647 350.500, 231.916 350.500 C 238.829 350.500, 240.148 350.795, 242.315 352.829 C 245.537 355.852, 246.122 359.248, 244.115 363.267 C 242.769 365.962, 242.500 370.331, 242.500 389.500 L 242.500 412.500 254.500 412.500 L 266.500 412.500 266.389 388.500 C 266.328 375.300, 265.947 362.864, 265.543 360.864 C 264.011 353.286, 269.720 349.382, 280.626 350.550 C 288.248 351.367, 288.370 351.061, 283.949 342.213 C 280.198 334.707, 272.760 327.698, 263.233 322.692 C 259.369 320.661, 255.996 319, 255.738 319 C 255.480 319, 252.063 320.604, 248.145 322.564 M 184.950 344.632 C 184.399 346.080, 184.223 348.127, 184.557 349.181 C 185.073 350.805, 185.454 350.533, 187.050 347.401 C 188.087 345.368, 188.698 343.321, 188.409 342.852 C 187.416 341.246, 185.950 342.001, 184.950 344.632 M 322.554 345.250 C 322.932 346.488, 323.624 348.175, 324.091 349 C 324.758 350.179, 324.946 350.037, 324.970 348.332 C 325.010 345.465, 324.019 343, 322.826 343 C 322.292 343, 322.171 344.001, 322.554 345.250 M 186.456 353.500 C 188.706 359.302, 189.166 364.824, 188.681 380.250 L 188.155 397 190.577 397 L 193 397 192.994 380.250 C 192.988 361.667, 192.250 357.487, 188.341 353.926 C 185.984 351.778, 185.769 351.729, 186.456 353.500 M 319.462 357.042 C 317.856 358.817, 317.518 361.497, 316.976 376.798 C 316.631 386.534, 316.543 395.063, 316.781 395.750 C 317.019 396.438, 317.953 397, 318.857 397 C 320.327 397, 320.463 395.325, 320.147 381.101 C 319.954 372.357, 320.259 363.025, 320.827 360.364 C 321.394 357.703, 321.738 355.404, 321.590 355.257 C 321.442 355.109, 320.485 355.912, 319.462 357.042 M 131.667 368.667 C 131.300 369.033, 131 375.278, 131 382.544 L 131 395.754 135.253 395.275 C 140.171 394.721, 142.615 396.613, 143.166 401.399 C 143.590 405.078, 146.204 406.905, 148.416 405.070 C 150.709 403.167, 150.719 383.862, 148.429 381.571 C 147.564 380.707, 146.458 380, 145.971 380 C 145.483 380, 143.869 377.863, 142.383 375.250 C 140.898 372.637, 138.993 369.938, 138.150 369.250 C 136.507 367.910, 132.761 367.573, 131.667 368.667 M 373.724 369.250 C 372.812 369.938, 371.375 372.174, 370.531 374.221 C 369.688 376.268, 367.648 378.940, 365.999 380.159 L 363 382.376 363 393.629 C 363 400.119, 363.427 405.146, 364.009 405.506 C 364.564 405.848, 365.914 405.845, 367.009 405.497 C 368.484 405.029, 369 403.982, 369 401.456 C 369 397.243, 372.340 394.682, 377.198 395.169 L 380.500 395.500 380.782 383.141 C 381.072 370.408, 380.481 368, 377.069 368 C 376.141 368, 374.636 368.563, 373.724 369.250 M 172.560 422.900 C 171.015 423.505, 172.747 424.698, 181.060 428.755 C 194.726 435.424, 208.811 440.225, 224.654 443.613 C 236.078 446.057, 239.604 446.363, 256.500 446.380 C 273.388 446.396, 276.918 446.098, 288.256 443.692 C 304.596 440.226, 319.756 435.176, 333 428.790 C 342.318 424.296, 343.219 423.640, 341 422.963 C 337.738 421.967, 175.098 421.906, 172.560 422.900 M 216.605 426.299 C 215.423 427.164, 214.941 428.586, 215.164 430.549 L 215.500 433.500 257 433.500 L 298.500 433.500 298.822 430.690 C 299.488 424.886, 300.315 425, 257.569 425 C 227.005 425, 217.991 425.286, 216.605 426.299" stroke="none" fill="black" fill-rule="evenodd"/>
</svg>